<svg xmlns="http://www.w3.org/2000/svg" xmlns:xlink="http://www.w3.org/1999/xlink" width="1200" height="1200" viewBox="0 0 1200 1200"><rect width="100%" height="100%" fill="#FFFFFF"></rect><g transform="translate(600 600) scale(0.69 0.69) rotate(0) translate(-600 -600)" style="fill:#000000"><svg fill="#000000" xmlns="http://www.w3.org/2000/svg" xmlns:xlink="http://www.w3.org/1999/xlink" version="1.1" x="0px" y="0px" viewBox="0 0 100 100" enable-background="new 0 0 100 100" xml:space="preserve"><path d="M67.771,66.25H31.395c-4.085,0-8.77-3.033-10.441-6.761l-4.057-9.024c-1.436-3.05-2.921-6.205-2.258-9.843  c0.788-4.33,5.072-5.873,8.818-5.873H75.71c3.746,0,8.03,1.543,8.817,5.873c0.664,3.635-0.819,6.788-2.254,9.836l-0.17,0.36  l-3.891,8.67C76.542,63.217,71.857,66.25,67.771,66.25z M23.457,36.25c-1.524,0-6.559,0.334-7.342,4.641  c-0.577,3.166,0.743,5.968,2.139,8.935l0.167,0.355l3.901,8.695c1.428,3.185,5.583,5.874,9.073,5.874h36.378  c3.49,0,7.645-2.689,9.072-5.874l4.071-9.056c1.396-2.965,2.713-5.766,2.135-8.928c-0.782-4.307-5.817-4.642-7.342-4.642H23.457z"></path><path d="M28.547,49.19c-1.958,0-3.552-1.594-3.552-3.552c0-1.959,1.594-3.553,3.552-3.553c1.959,0,3.553,1.594,3.553,3.553  C32.1,47.596,30.506,49.19,28.547,49.19z M28.547,43.585c-1.132,0-2.052,0.921-2.052,2.053c0,1.132,0.92,2.052,2.052,2.052  c1.132,0,2.053-0.92,2.053-2.052C30.6,44.506,29.679,43.585,28.547,43.585z"></path><path d="M39.065,49.19c-1.958,0-3.552-1.594-3.552-3.552c0-1.959,1.594-3.553,3.552-3.553s3.552,1.594,3.552,3.553  C42.617,47.596,41.023,49.19,39.065,49.19z M39.065,43.585c-1.132,0-2.052,0.921-2.052,2.053c0,1.132,0.92,2.052,2.052,2.052  s2.052-0.92,2.052-2.052C41.117,44.506,40.197,43.585,39.065,43.585z"></path><path d="M49.583,49.19c-1.958,0-3.552-1.594-3.552-3.552c0-1.959,1.593-3.553,3.552-3.553s3.554,1.594,3.554,3.553  C53.137,47.596,51.542,49.19,49.583,49.19z M49.583,43.585c-1.131,0-2.052,0.921-2.052,2.053c0,1.132,0.92,2.052,2.052,2.052  s2.054-0.92,2.054-2.052C51.637,44.506,50.715,43.585,49.583,43.585z"></path><path d="M60.102,49.19c-1.959,0-3.553-1.594-3.553-3.552c0-1.959,1.594-3.553,3.553-3.553c1.961,0,3.555,1.594,3.555,3.553  C63.654,47.596,62.063,49.19,60.102,49.19z M60.102,43.585c-1.131,0-2.053,0.921-2.053,2.053c0,1.132,0.922,2.052,2.053,2.052  c1.133,0,2.055-0.92,2.055-2.052C62.156,44.506,61.234,43.585,60.102,43.585z"></path><path d="M33.806,59.529c-1.959,0-3.553-1.594-3.553-3.553c0-1.957,1.594-3.552,3.553-3.552c1.958,0,3.552,1.595,3.552,3.552  C37.358,57.936,35.765,59.529,33.806,59.529z M33.806,53.926c-1.132,0-2.053,0.922-2.053,2.053s0.921,2.051,2.053,2.051  c1.132,0,2.052-0.92,2.052-2.051S34.938,53.926,33.806,53.926z"></path><path d="M44.301,59.529c-1.958,0-3.552-1.594-3.552-3.553c0-1.957,1.594-3.552,3.552-3.552s3.552,1.595,3.552,3.552  C47.853,57.936,46.26,59.529,44.301,59.529z M44.301,53.926c-1.132,0-2.052,0.922-2.052,2.053s0.92,2.051,2.052,2.051  c1.132,0,2.052-0.92,2.052-2.051S45.433,53.926,44.301,53.926z"></path><path d="M54.865,59.529c-1.959,0-3.553-1.594-3.553-3.553c0-1.957,1.594-3.552,3.553-3.552s3.553,1.595,3.553,3.552  C58.418,57.936,56.824,59.529,54.865,59.529z M54.865,53.926c-1.133,0-2.053,0.922-2.053,2.053s0.92,2.051,2.053,2.051  c1.132,0,2.053-0.92,2.053-2.051S55.997,53.926,54.865,53.926z"></path><path d="M65.361,59.529c-1.959,0-3.553-1.594-3.553-3.553c0-1.957,1.594-3.552,3.553-3.552c1.957,0,3.552,1.595,3.552,3.552  C68.913,57.936,67.318,59.529,65.361,59.529z M65.361,53.926c-1.131,0-2.053,0.922-2.053,2.053s0.922,2.051,2.053,2.051  s2.052-0.92,2.052-2.051S66.492,53.926,65.361,53.926z"></path><path d="M70.62,49.19c-1.959,0-3.554-1.594-3.554-3.552c0-1.959,1.595-3.553,3.554-3.553s3.553,1.594,3.553,3.553  C74.173,47.596,72.579,49.19,70.62,49.19z M70.62,43.585c-1.132,0-2.054,0.921-2.054,2.053c0,1.132,0.922,2.052,2.054,2.052  s2.053-0.92,2.053-2.052C72.673,44.506,71.752,43.585,70.62,43.585z"></path><path d="M89.023,46.549c-1.902,0-3.45,1.548-3.45,3.451c0,1.902,1.548,3.451,3.45,3.451c1.901,0,3.451-1.549,3.451-3.451  C92.477,48.097,90.928,46.549,89.023,46.549z M89.023,51.951c-1.075,0-1.95-0.875-1.95-1.951s0.875-1.951,1.95-1.951  c1.076,0,1.951,0.875,1.951,1.951C90.977,51.076,90.102,51.951,89.023,51.951z"></path><path d="M10.975,46.549c-1.903,0-3.451,1.548-3.451,3.451c0,1.902,1.548,3.451,3.451,3.451c1.903,0,3.451-1.549,3.451-3.451  C14.426,48.097,12.878,46.549,10.975,46.549z M10.975,51.951c-1.076,0-1.951-0.875-1.951-1.951s0.875-1.951,1.951-1.951  c1.076,0,1.951,0.875,1.951,1.951S12.051,51.951,10.975,51.951z"></path></svg></g></svg>